<svg aria-hidden="true" style="position: absolute; width: 0; height: 0; overflow: hidden;" version="1.1" xmlns="http://www.w3.org/2000/svg" xmlns:xlink="http://www.w3.org/1999/xlink">
<defs>
<symbol id="icon-cloud" viewBox="0 0 33 32">
<path fill="#4b6f7b" style="fill: var(--color1, #4b6f7b)" d="M22.254 3.751c0.593-0.394 1.2-0.681 1.855-0.863 0.557-0.154 1.121-0.279 1.703-0.24 0.677 0.046 1.302 0.234 1.803 0.732 0.579 0.575 0.772 1.271 0.676 2.063-0.073 0.597-0.294 1.137-0.635 1.631-0.056 0.081-0.107 0.167-0.199 0.311 0.146 0.001 0.25 0.013 0.351 0.002 1.368-0.152 2.64 0.157 3.815 0.846 1.37 0.803 1.802 2.232 1.471 3.626-0.419 1.762-1.569 2.734-3.288 3.112-1.385 0.305-2.712 0.129-3.986-0.483-0.11-0.053-0.225-0.097-0.353-0.151-0.084 0.173-0.156 0.331-0.237 0.484-0.459 0.88-1.146 1.554-1.964 2.090-1.25 0.818-2.604 1.388-4.088 1.635-1.023 0.171-2.021 0.032-3.013-0.206-0.328-0.079-0.653-0.174-0.976-0.272-1.254-0.378-2.214-1.159-2.948-2.218-0.253-0.365-0.412-0.794-0.631-1.227-0.061 0.019-0.163 0.054-0.267 0.084-2.015 0.595-3.876 0.295-5.514-1.035-1.030-0.836-1.563-1.971-1.691-3.291-0.17-1.744 0.579-3.084 1.864-4.177 0.89-0.758 1.925-1.227 3.082-1.369 0.864-0.106 1.729-0.073 2.558 0.368 0.001-0.111 0.014-0.192 0.001-0.269-0.192-1.155 0.21-2.096 1.052-2.867 0.781-0.715 1.725-1.157 2.699-1.531 0.918-0.352 1.867-0.556 2.86-0.533 1.783 0.041 3.698 1.212 3.963 3.504 0.008 0.071 0.021 0.142 0.037 0.245l0-0zM13.262 11.99c-0.085 0.090-0.147 0.181-0.231 0.243-0.357 0.265-0.556 0.631-0.723 1.033-0.174 0.417 0.008 0.852-0.103 1.268-0.008 0.031 0.021 0.071 0.029 0.108 0.122 0.535 0.43 0.958 0.819 1.324 0.7 0.658 1.543 1.062 2.447 1.353 1.048 0.337 2.118 0.515 3.216 0.365 1.424-0.194 2.73-0.728 3.941-1.489 0.808-0.508 1.489-1.15 1.908-2.030 0.361-0.758 0.237-1.474-0.354-2.068-0.079-0.080-0.178-0.157-0.216-0.255-0.042-0.108-0.071-0.266-0.020-0.351 0.049-0.081 0.218-0.148 0.315-0.129 0.163 0.032 0.337 0.109 0.46 0.219 0.469 0.42 0.701 0.97 0.777 1.585 0.026 0.211 0.109 0.331 0.303 0.424 0.581 0.28 1.187 0.449 1.827 0.534 0.845 0.112 1.68 0.097 2.488-0.165 0.989-0.321 1.787-0.895 2.232-1.881 0.422-0.936 0.311-2.223-0.663-3.001-0.356-0.285-0.742-0.513-1.17-0.669-1.015-0.37-2.047-0.593-3.123-0.301-0.276 0.075-0.537 0.205-0.808 0.301-0.188 0.067-0.389 0.017-0.477-0.112-0.105-0.154-0.079-0.31 0.014-0.458 0.040-0.063 0.089-0.121 0.138-0.178 0.147-0.171 0.297-0.34 0.444-0.512 0.428-0.502 0.791-1.040 0.919-1.702 0.213-1.104-0.281-1.86-1.335-2.111-0.553-0.132-1.1-0.061-1.64 0.033-0.891 0.155-1.694 0.529-2.407 1.090-0.069 0.054-0.136 0.114-0.213 0.154-0.203 0.106-0.374 0.009-0.385-0.223-0.010-0.213 0.001-0.426 0.003-0.64 0.007-1.194-0.775-2.315-1.898-2.727-0.839-0.308-1.696-0.291-2.556-0.138-1.153 0.205-2.196 0.69-3.181 1.302-0.285 0.177-0.546 0.403-0.782 0.643-0.872 0.887-1.233 2.567-0.34 3.77 0.245 0.331 0.529 0.632 0.796 0.947 0.044 0.052 0.090 0.102 0.151 0.17-0.347 0.037-0.437 0.008-0.728-0.18-0.542-0.351-0.846-0.886-1.091-1.453-0.105-0.244-0.266-0.361-0.5-0.376-0.888-0.060-1.783-0.123-2.658 0.085-1.653 0.393-2.792 1.42-3.479 2.952-0.327 0.729-0.391 1.506-0.226 2.285 0.271 1.282 1.109 2.099 2.254 2.644 0.767 0.365 1.582 0.457 2.42 0.407 0.529-0.032 1.039-0.147 1.525-0.363 0.181-0.080 0.298-0.185 0.366-0.387 0.183-0.541 0.547-0.953 1.024-1.261 0.13-0.084 0.268-0.197 0.489-0.076l-0-0z"></path>
<path fill="#4b6f7b" style="fill: var(--color1, #4b6f7b)" d="M2.316 19.963c-0.054-0.045-0.070-0.065-0.092-0.077-0.627-0.349-0.74-0.872-0.619-1.433 0.141-0.656 0.645-1.131 1.287-1.201 0.295-0.032 0.596 0 0.927 0.003 0.063-0.164 0.126-0.324 0.185-0.485 0.211-0.579 0.577-1.022 1.133-1.299 1.139-0.568 2.25 0.010 2.72 0.799 0.152 0.255 0.251 0.542 0.391 0.851 0.046 0.009 0.129 0.025 0.213 0.041 0.879 0.177 1.352 0.798 1.712 1.551 0.352 0.736 0.248 1.399-0.258 2.031-0.408 0.51-0.888 0.915-1.483 1.186-0.748 0.341-1.534 0.543-2.347 0.629-0.856 0.090-1.627-0.227-2.378-0.581-0.293-0.138-0.576-0.313-0.829-0.514-0.478-0.38-0.8-0.841-0.561-1.504v-0zM7.275 18.844c-0.020-0.019-0.040-0.038-0.060-0.058 0.070-0.084 0.143-0.165 0.21-0.251 0.391-0.504 0.466-1.077 0.278-1.663-0.203-0.635-0.702-0.966-1.342-1.057-0.66-0.094-1.184 0.18-1.544 0.724-0.177 0.268-0.289 0.581-0.412 0.881-0.174 0.424-0.276 0.483-0.741 0.406-0.45-0.074-0.879-0.041-1.225 0.303-0.446 0.443-0.56 0.986 0.149 1.317 0.226 0.105 0.469 0.242 0.575 0.5-0.229 0.51-0.136 0.839 0.33 1.156 0.124 0.084 0.259 0.152 0.393 0.22 0.849 0.433 1.743 0.512 2.667 0.327 0.743-0.149 1.443-0.402 2.078-0.829 0.594-0.398 0.816-0.956 0.77-1.647-0.042-0.638-0.596-1.151-1.271-1.155-0.186 0.369-0.457 0.666-0.853 0.826z"></path>
<path fill="#4b6f7b" style="fill: var(--color1, #4b6f7b)" d="M0.005 25.449c-0.031-0.356 0.074-0.65 0.261-0.909 0.131-0.182 0.276-0.363 0.447-0.504 0.423-0.347 0.882-0.646 1.296-1.011 0.348-0.307 0.786-0.347 1.241-0.226 0.941 0.25 1.533 0.864 1.843 1.762 0.168 0.488 0.055 0.94-0.288 1.329-0.083 0.094-0.165 0.193-0.265 0.266-0.513 0.379-1.026 0.757-1.549 1.121-0.415 0.289-0.888 0.268-1.337 0.13-0.798-0.244-1.389-0.732-1.615-1.576-0.016-0.060-0.029-0.123-0.033-0.184-0.005-0.075 0-0.15 0-0.198v0zM3.018 23.655c-0.171 0.031-0.349 0.039-0.51 0.095-0.754 0.265-1.268 0.782-1.539 1.532-0.049 0.137-0.061 0.296-0.054 0.442 0.005 0.105 0.045 0.23 0.113 0.306 0.583 0.648 1.157 0.843 1.82 0.094 0.112-0.127 0.264-0.227 0.414-0.308 0.326-0.178 0.595-0.414 0.793-0.726 0.127-0.199 0.173-0.422 0.079-0.646-0.136-0.327-0.695-0.845-1.116-0.789l-0 0z"></path>
<path fill="#4b6f7b" style="fill: var(--color1, #4b6f7b)" d="M5.346 30.042c-0.027 0.647-0.251 1.195-0.816 1.558-0.498 0.32-1.249 0.183-1.549-0.326-0.219-0.371-0.388-0.784-0.508-1.198-0.102-0.35-0.001-0.7 0.311-0.94 0.4-0.308 0.829-0.555 1.351-0.589 0.436-0.028 0.744 0.172 0.966 0.526 0.185 0.295 0.247 0.624 0.245 0.97zM4.584 29.814c-0.041-0.089-0.088-0.247-0.179-0.371-0.046-0.062-0.202-0.114-0.259-0.083-0.282 0.155-0.573 0.312-0.812 0.523-0.203 0.179-0.188 0.508-0.041 0.678 0.24 0.279 0.455 0.324 0.759 0.15 0.318-0.182 0.477-0.468 0.533-0.896l0-0z"></path>
<path fill="#4b6f7b" style="fill: var(--color1, #4b6f7b)" d="M18.914 4.495c0.373-0.032 0.745-0.061 1.118-0.098 0.169-0.017 0.299 0.031 0.371 0.189 0.093 0.204 0.189 0.403 0.161 0.643-0.092 0.795-0.155 1.595-0.263 2.388s-0.244 1.584-0.39 2.372c-0.068 0.368-0.187 0.726-0.284 1.089-0.032 0.121-0.079 0.239-0.101 0.361-0.065 0.368-0.061 0.375-0.439 0.456-0.218 0.047-0.44 0.084-0.662 0.105-0.416 0.040-0.658-0.244-0.72-0.572-0.097-0.516-0.198-1.037-0.221-1.559-0.046-1.026-0.030-2.054-0.060-3.081-0.015-0.5-0.072-0.998-0.116-1.497-0.039-0.445-0.012-0.706 0.556-0.782 0.086-0.012 0.171-0.049 0.257-0.050 0.263-0.004 0.527 0.003 0.79 0.005 0.001 0.011 0.002 0.021 0.003 0.031zM18.269 5.398c0.026 0.326 0.068 0.625 0.070 0.923 0.007 0.952-0.009 1.905 0.002 2.858 0.007 0.598 0.044 1.197 0.17 1.833 0.234-0.034 0.448-0.065 0.627-0.091 0.006-0.668-0.029-1.296 0.029-1.915 0.083-0.897 0.237-1.787 0.352-2.681 0.038-0.294 0.048-0.592 0.072-0.914-0.452-0.004-0.861-0.008-1.322-0.013v0z"></path>
<path fill="#4b6f7b" style="fill: var(--color1, #4b6f7b)" d="M18.647 15.632c-0.818-0.013-1.315-0.551-1.293-1.308 0.028-0.955 0.727-1.455 1.513-1.589 0.808-0.138 1.487 0.745 1.277 1.56-0.116 0.452-0.378 0.843-0.786 1.109-0.236 0.154-0.488 0.253-0.711 0.228h0zM18.302 14.681c0.461 0.006 0.81-0.237 0.97-0.676 0.080-0.22-0.026-0.371-0.261-0.353-0.135 0.010-0.271 0.083-0.402 0.072-0.388-0.033-0.52 0.226-0.629 0.515-0.116 0.306-0.017 0.437 0.322 0.442z"></path>
</symbol>
<symbol id="icon-mehanzm" viewBox="0 0 25 32">
<path fill="#4b6f7b" style="fill: var(--color1, #4b6f7b)" d="M1.82 15.245c-0.143 0.024-0.31 0.045-0.474 0.082-0.248 0.056-0.328 0.051-0.455-0.169-0.255-0.441-0.491-0.892-0.724-1.345-0.155-0.302-0.008-0.561 0.166-0.798 0.046-0.062 0.149-0.105 0.231-0.113 0.246-0.024 0.44-0.134 0.594-0.315 0.149-0.174 0.292-0.355 0.423-0.543 0.055-0.079 0.088-0.181 0.104-0.277 0.073-0.453-0.29-1.045-0.728-1.182-0.212-0.067-0.405-0.134-0.396-0.406-0.243-0.342-0.11-0.696-0.011-1.036 0.129-0.442 0.323-0.854 0.595-1.235 0.143-0.199 0.291-0.209 0.488-0.176 0.157 0.026 0.314 0.060 0.472 0.073 0.322 0.027 0.613-0.081 0.879-0.25 0.097-0.062 0.191-0.156 0.242-0.258 0.221-0.441 0.273-0.893 0.033-1.349-0.293-0.556-0.273-0.637 0.235-1.010 0.258-0.189 0.514-0.383 0.771-0.573 0.088-0.065 0.177-0.131 0.271-0.188 0.348-0.211 0.436-0.209 0.672 0.119 0.217 0.301 0.541 0.31 0.847 0.381 0.038 0.009 0.080 0.006 0.12 0.008 0.451 0.028 0.56-0.038 0.689-0.474 0.059-0.199 0.088-0.41 0.109-0.617 0.018-0.182 0.085-0.327 0.231-0.433 0.047-0.034 0.107-0.070 0.162-0.071 0.768-0.019 1.535-0.038 2.303-0.045 0.341-0.003 0.525 0.227 0.474 0.566-0.030 0.197-0.063 0.394-0.098 0.59-0.042 0.236 0.088 0.408 0.315 0.478 0.247 0.076 0.505 0.121 0.76 0.17s0.471-0.032 0.657-0.212c0.13-0.125 0.263-0.248 0.408-0.353 0.103-0.074 0.228-0.12 0.348-0.168 0.042-0.017 0.107-0.020 0.144 0.002 0.204 0.118 0.418 0.227 0.6 0.374 0.412 0.334 0.808 0.688 1.209 1.035 0.053 0.046 0.102 0.096 0.146 0.151 0.061 0.075 0.072 0.147 0.013 0.243-0.209 0.34-0.413 0.683-0.601 1.035-0.117 0.22-0.201 0.453-0.145 0.718 0.093 0.44 0.481 0.713 0.929 0.627 0.196-0.037 0.387-0.1 0.583-0.134 0.321-0.056 0.565 0.070 0.689 0.359 0.233 0.542 0.458 1.086 0.682 1.632 0.045 0.11 0.076 0.227 0.1 0.344 0.025 0.123-0.005 0.198-0.139 0.282-0.487 0.302-0.905 0.687-1.23 1.165-0.347 0.511 0.057 1.076 0.46 1.172 0.077 0.019 0.156 0.038 0.23 0.067 0.213 0.084 0.305 0.325 0.168 0.509-0.165 0.223-0.198 0.473-0.227 0.732-0.031 0.268-0.060 0.536-0.101 0.803-0.017 0.107-0.056 0.213-0.1 0.312-0.059 0.134-0.143 0.175-0.31 0.14-0.321-0.067-0.652-0.119-0.979-0.014-0.58 0.186-1.139 0.659-0.839 1.554 0.038 0.113 0.085 0.224 0.136 0.332 0.159 0.333 0.136 0.633-0.151 0.867-0.433 0.353-0.896 0.671-1.355 0.991-0.152 0.106-0.288 0.050-0.406-0.112-0.233-0.318-0.513-0.587-0.861-0.776-0.412-0.223-0.872-0.084-1.078 0.344-0.107 0.222-0.186 0.465-0.229 0.708-0.132 0.741-0.079 0.587-0.696 0.582-0.38-0.003-0.76 0.005-1.139 0.020-0.107 0.004-0.212 0.054-0.319 0.078-0.317 0.072-0.493-0.071-0.521-0.393-0.037-0.432-0.131-0.843-0.441-1.182-0.18-0.197-0.393-0.295-0.647-0.341-0.576-0.105-1.022 0.083-1.349 0.566-0.050 0.074-0.103 0.15-0.168 0.211-0.154 0.145-0.349 0.134-0.508-0.003-0.097-0.083-0.206-0.152-0.314-0.222-0.335-0.217-0.682-0.417-1.004-0.652-0.263-0.192-0.293-0.494-0.122-0.771 0.131-0.212 0.284-0.415 0.386-0.64 0.32-0.7 0.107-1.299-0.768-1.498-0.136-0.031-0.273-0.054-0.441-0.086l0 0zM12.065 18.967c0.54-0.281 1.049-0.547 1.56-0.813-0.369-0.508-0.461-1.078-0.458-1.663 0.002-0.357 0.116-0.697 0.41-0.933 0.526-0.424 1.104-0.595 1.76-0.312 0.072 0.031 0.146 0.060 0.262 0.107 0.148-0.55 0.292-1.085 0.442-1.641-0.374-0.061-0.674-0.213-0.867-0.517-0.309-0.486-0.498-1.007-0.181-1.549 0.287-0.49 0.666-0.903 1.261-1.040 0.056-0.013 0.107-0.048 0.173-0.079-0.221-0.616-0.438-1.222-0.662-1.845-0.268 0.064-0.526 0.137-0.789 0.187-0.57 0.108-1.125-0.112-1.34-0.57-0.387-0.828-0.353-1.544 0.458-2.261 0.057-0.051 0.116-0.099 0.192-0.163-0.518-0.498-1.022-0.982-1.526-1.466-0.162 0.197-0.326 0.409-0.504 0.609-0.185 0.209-0.42 0.317-0.701 0.37-0.38 0.071-0.736-0.002-1.093-0.101-0.705-0.196-1.001-0.609-0.97-1.341 0.005-0.106 0.010-0.211 0.016-0.351-0.609 0.002-1.175 0.004-1.752 0.005 0.043 0.444-0.043 0.851-0.222 1.237-0.134 0.289-0.345 0.486-0.679 0.525-0.159 0.018-0.317 0.070-0.474 0.065-0.492-0.016-0.928-0.157-1.189-0.62-0.033-0.058-0.073-0.113-0.127-0.195-0.514 0.408-1.011 0.803-1.518 1.206 0.243 0.447 0.261 0.913 0.218 1.387-0.039 0.431-0.227 0.76-0.641 0.937-0.491 0.21-0.993 0.301-1.52 0.156-0.065-0.018-0.135-0.016-0.212-0.024-0.329 0.564-0.243 1.211-0.452 1.782 0.626 0.253 0.79 0.415 1.032 1.009 0.049 0.12 0.092 0.243 0.127 0.368 0.094 0.334 0.065 0.655-0.132 0.948-0.106 0.157-0.21 0.319-0.34 0.456-0.258 0.272-0.499 0.568-0.855 0.699 0.15 0.475 0.294 0.928 0.43 1.359 0.225-0.060 0.46-0.17 0.699-0.178 0.735-0.026 1.295 0.309 1.666 0.934 0.349 0.59 0.3 1.184-0.050 1.76-0.103 0.17-0.217 0.334-0.345 0.529 0.307 0.23 0.608 0.456 0.918 0.688 0.060-0.069 0.108-0.118 0.15-0.172 0.346-0.441 0.802-0.676 1.358-0.737 0.526-0.057 1.262 0.164 1.58 0.816 0.17 0.348 0.275 0.705 0.275 1.093-0 0.074 0.015 0.149 0.026 0.249 0.371-0.149 0.729-0.131 1.090-0.124 0.238 0.005 0.476-0.032 0.727-0.051 0.002-0.386 0.080-0.751 0.207-1.112 0.229-0.647 1.339-0.961 1.859-0.508 0.29 0.252 0.561 0.51 0.704 0.886l-0 0z"></path>
<path fill="#4b6f7b" style="fill: var(--color1, #4b6f7b)" d="M17.74 15.939c0.322-0.003 0.608-0.011 0.894-0.007 0.22 0.003 0.442 0.007 0.659 0.038 0.27 0.038 0.367 0.208 0.296 0.473-0.034 0.125-0.079 0.248-0.104 0.375-0.060 0.31 0.057 0.565 0.348 0.688 0.18 0.076 0.381 0.123 0.577 0.137 0.264 0.020 0.486-0.093 0.641-0.318 0.096-0.139 0.179-0.292 0.404-0.357 0.37 0.256 0.766 0.524 1.154 0.804 0.085 0.061 0.152 0.16 0.203 0.254 0.112 0.207 0.088 0.265-0.067 0.451-0.153 0.183-0.31 0.369-0.427 0.575-0.16 0.282-0.107 0.466 0.177 0.627 0.188 0.107 0.398 0.187 0.609 0.241 0.104 0.026 0.234-0.023 0.345-0.060 0.358-0.118 0.418-0.091 0.559 0.265 0.118 0.297 0.245 0.59 0.366 0.886 0.030 0.074 0.054 0.15 0.076 0.227 0.074 0.262 0.078 0.271-0.163 0.399-0.342 0.181-0.596 0.439-0.738 0.797-0.047 0.119-0.079 0.249-0.087 0.376-0.015 0.251 0.091 0.447 0.326 0.558 0.126 0.060 0.253 0.123 0.386 0.164 0.152 0.048 0.226 0.143 0.186 0.29-0.14 0.519-0.218 1.059-0.513 1.526-0.106 0.168-0.158 0.205-0.344 0.134-0.456-0.173-0.817 0.030-1.176 0.264-0.11 0.072-0.149 0.179-0.157 0.307-0.017 0.259 0.056 0.491 0.185 0.713 0.197 0.338 0.111 0.632-0.225 0.823-0.348 0.197-0.695 0.397-1.042 0.595-0.184 0.105-0.276 0.091-0.412-0.082-0.092-0.118-0.179-0.242-0.253-0.372-0.096-0.17-0.238-0.233-0.424-0.221-0.33 0.022-0.591 0.179-0.789 0.433-0.109 0.139-0.117 0.308-0.105 0.485 0.020 0.301-0.056 0.36-0.362 0.355-0.23-0.004-0.46 0.026-0.689 0.013-0.246-0.013-0.493-0.048-0.734-0.098-0.068-0.014-0.153-0.102-0.171-0.172-0.032-0.122-0.036-0.258-0.019-0.384 0.058-0.452-0.287-0.674-0.614-0.7-0.22-0.018-0.459 0.048-0.669 0.13-0.136 0.053-0.254 0.189-0.342 0.314-0.079 0.112-0.155 0.16-0.27 0.098-0.43-0.236-0.857-0.478-1.196-0.842-0.099-0.106-0.128-0.232-0.073-0.361 0.066-0.155 0.145-0.306 0.231-0.451 0.291-0.49 0.137-0.935-0.402-1.115-0.169-0.056-0.348-0.086-0.525-0.117-0.109-0.019-0.207-0.005-0.302 0.083-0.119 0.111-0.232 0.084-0.328-0.040-0.018-0.024-0.037-0.049-0.046-0.077-0.156-0.483-0.37-0.951-0.39-1.47-0.010-0.269 0.044-0.352 0.291-0.454 0.065-0.027 0.135-0.041 0.196-0.074 0.087-0.048 0.177-0.098 0.248-0.165 0.215-0.202 0.364-0.463 0.285-0.748-0.075-0.274-0.343-0.412-0.607-0.486-0.398-0.111-0.453-0.181-0.371-0.586 0.102-0.5 0.234-0.99 0.448-1.457 0.088-0.192 0.213-0.279 0.421-0.255 0.099 0.012 0.2 0.014 0.299 0.031 0.477 0.081 0.78-0.073 1.009-0.497 0.183-0.34 0.277-0.675 0.106-1.056-0.098-0.219-0.058-0.293 0.166-0.406 0.375-0.189 0.755-0.371 1.14-0.538 0.262-0.114 0.337-0.076 0.487 0.173 0.185 0.308 0.584 0.478 0.926 0.356 0.114-0.041 0.216-0.173 0.278-0.287 0.137-0.253 0.139-0.539 0.126-0.819-0.006-0.143-0.013-0.279 0.089-0.385l-0-0zM22.047 27.148c-0.315-0.576-0.485-1.132-0.043-1.637 0.4-0.458 0.933-0.674 1.569-0.502 0.222-0.338 0.266-0.713 0.356-1.080-0.099-0.047-0.178-0.089-0.261-0.122-0.331-0.13-0.481-0.38-0.559-0.72-0.123-0.539 0.285-1.521 0.828-1.734 0.062-0.024 0.114-0.074 0.178-0.117-0.126-0.336-0.247-0.659-0.369-0.983-0.069 0.018-0.107 0.027-0.145 0.039-0.579 0.188-1.059-0.007-1.486-0.388-0.153-0.137-0.228-0.321-0.261-0.527-0.053-0.332 0.069-0.608 0.255-0.866 0.098-0.135 0.203-0.266 0.319-0.417-0.161-0.14-0.302-0.266-0.445-0.389-0.14-0.121-0.282-0.239-0.428-0.363-0.271 0.6-0.819 0.867-1.433 0.713-0.275-0.069-0.542-0.16-0.717-0.403-0.291-0.403-0.318-0.849-0.164-1.339-0.411-0.019-0.785-0.036-1.166-0.053 0.006 0.092 0.014 0.181 0.017 0.271 0.011 0.324-0.038 0.638-0.181 0.932-0.081 0.167-0.198 0.299-0.374 0.373-0.476 0.2-1.048-0.014-1.277-0.477-0.029-0.059-0.067-0.113-0.107-0.179-0.426 0.217-0.834 0.424-1.265 0.644 0.261 0.576 0.058 1.070-0.249 1.534-0.356 0.54-0.951 0.465-1.486 0.531-0.226 0.388-0.362 0.797-0.419 1.198 0.248 0.171 0.477 0.314 0.688 0.478 0.191 0.149 0.293 0.359 0.285 0.603-0.018 0.604-0.322 1.213-0.967 1.459-0.062 0.024-0.121 0.055-0.205 0.094 0.109 0.313 0.213 0.612 0.317 0.91 0.148 0.007 0.27-0.001 0.387 0.020 0.265 0.048 0.532 0.092 0.789 0.17 0.258 0.079 0.458 0.253 0.567 0.504 0.204 0.471 0.205 0.931-0.114 1.362-0.056 0.076-0.108 0.155-0.163 0.234 0.318 0.182 0.611 0.349 0.927 0.529 0.247-0.35 0.615-0.44 1.015-0.486 0.652-0.075 1.194 0.326 1.261 0.976 0.019 0.184-0.013 0.372-0.020 0.539 0.389-0.061 0.767-0.122 1.141-0.181 0.016-0.086 0.033-0.154 0.041-0.224 0.048-0.386 0.244-0.683 0.582-0.857 0.19-0.098 0.414-0.138 0.628-0.179 0.346-0.065 0.631 0.042 0.821 0.354 0.062 0.102 0.13 0.199 0.21 0.321 0.376-0.19 0.739-0.373 1.124-0.567l-0-0z"></path>
<path fill="#4b6f7b" style="fill: var(--color1, #4b6f7b)" d="M8.321 17.211c-0.755-0.046-1.462-0.253-2.14-0.563-0.424-0.194-0.792-0.467-1.102-0.817-0.392-0.442-0.804-0.868-1.075-1.402-0.412-0.814-0.701-1.663-0.628-2.588 0.040-0.506 0.141-1.008 0.219-1.511 0.014-0.088 0.042-0.176 0.080-0.257 0.376-0.803 0.811-1.561 1.559-2.091 0.293-0.208 0.559-0.455 0.851-0.665 0.653-0.472 1.389-0.7 2.195-0.672 1.089 0.037 2.101 0.313 3.042 0.893 1.041 0.643 1.681 1.554 1.993 2.709 0.495 1.83 0.115 3.492-0.981 5.022-0.759 1.060-1.77 1.687-3.058 1.871-0.316 0.045-0.637 0.049-0.956 0.072zM8.046 16.393c0.279-0.016 0.559-0.019 0.836-0.051 1.054-0.122 1.959-0.534 2.655-1.359 1.145-1.355 1.55-2.888 1.092-4.612-0.244-0.921-0.762-1.652-1.588-2.175-0.801-0.507-1.668-0.743-2.602-0.815-0.677-0.053-1.251 0.148-1.793 0.537-0.701 0.504-1.253 1.148-1.783 1.813-0.203 0.255-0.351 0.556-0.503 0.848-0.070 0.134-0.12 0.266-0.253 0.359-0.067 0.047-0.128 0.141-0.139 0.221-0.049 0.355-0.12 0.714-0.107 1.069 0.036 0.978 0.442 1.818 1.077 2.546 0.82 0.94 1.816 1.555 3.107 1.619z"></path>
<path fill="#4b6f7b" style="fill: var(--color1, #4b6f7b)" d="M14.64 22.39c-0.079-0.343 0.062-0.673 0.214-1.003 0.092-0.199 0.197-0.401 0.24-0.613 0.114-0.565 0.476-0.941 0.926-1.237 0.718-0.473 1.506-0.778 2.367-0.876 0.346-0.039 0.68 0.041 1.001 0.149 1.142 0.384 2.057 1.057 2.502 2.205 0.492 1.272 0.387 2.515-0.307 3.713-0.354 0.611-0.859 0.972-1.518 1.18-0.691 0.218-1.389 0.372-2.116 0.359-0.828-0.014-1.543-0.32-2.123-0.907-0.259-0.262-0.5-0.548-0.708-0.851-0.43-0.628-0.553-1.338-0.479-2.12l-0-0zM21.489 22.642c-0.002-0.102 0.003-0.222-0.007-0.341-0.052-0.64-0.226-1.24-0.654-1.736-0.462-0.536-1.049-0.884-1.726-1.090-0.461-0.141-0.912-0.11-1.346 0.079-0.329 0.143-0.658 0.299-0.958 0.493-0.367 0.238-0.693 0.539-1.058 0.781-0.245 0.163-0.365 0.384-0.443 0.645-0.080 0.267-0.162 0.535-0.221 0.808-0.156 0.712 0.007 1.353 0.5 1.89 0.269 0.293 0.568 0.562 0.877 0.814 0.464 0.378 1.003 0.559 1.61 0.557 0.476-0.001 0.933-0.081 1.383-0.223 1.238-0.389 1.986-1.345 2.044-2.677z"></path>
<path fill="#4b6f7b" style="fill: var(--color1, #4b6f7b)" d="M5.777 12.539c0.063-1.205 0.55-2.026 1.365-2.628 0.717-0.53 1.529-0.655 2.38-0.295 0.302 0.128 0.63 0.21 0.857 0.472 0.679 0.785 1.176 2.081 0.427 3.195-0.244 0.362-0.521 0.71-0.829 1.018-0.68 0.682-1.493 0.793-2.376 0.447-0.62-0.243-1.134-0.623-1.499-1.193-0.287-0.449-0.351-0.655-0.325-1.018v0zM8.227 14.1c0.469 0.038 0.867-0.12 1.217-0.419 0.333-0.284 0.557-0.649 0.785-1.015 0.44-0.707 0.093-2.203-1.085-2.463-0.575-0.127-1.133-0.066-1.585 0.4-0.516 0.532-0.87 1.145-1.010 1.872-0.031 0.16-0.053 0.367 0.022 0.493 0.372 0.627 0.877 1.086 1.656 1.132l0-0z"></path>
<path fill="#4b6f7b" style="fill: var(--color1, #4b6f7b)" d="M18.615 20.674c1.111 0.049 2.019 1.21 1.769 2.285-0.020 0.087-0.053 0.173-0.094 0.252-0.22 0.419-0.495 0.801-0.841 1.122-0.394 0.365-0.856 0.482-1.387 0.325-0.502-0.148-0.964-0.35-1.244-0.82-0.351-0.59-0.489-1.228-0.284-1.895 0.214-0.694 0.726-1.080 1.427-1.215 0.213-0.041 0.436-0.037 0.654-0.053l0-0zM18.355 21.162c-0.226-0.012-0.429 0.033-0.609 0.155-0.333 0.227-0.564 0.531-0.686 0.917-0.162 0.516-0.051 0.959 0.342 1.337 0.536 0.517 1.231 0.487 1.699-0.091 0.169-0.209 0.313-0.438 0.463-0.661 0.173-0.256 0.174-0.533 0.044-0.798-0.255-0.52-0.736-0.722-1.254-0.858l0-0z"></path>
</symbol>
<symbol id="icon-brain" viewBox="0 0 33 32">
<path fill="#4b6f7b" style="fill: var(--color1, #4b6f7b)" d="M20.718 28.057c0 0.565 0.015 1.031-0.005 1.496-0.017 0.376-0.046 0.757-0.122 1.124-0.181 0.872-0.956 1.266-1.801 0.944-0.541-0.206-0.986-0.545-1.227-1.073-0.253-0.553-0.459-1.13-0.652-1.708-0.188-0.562-0.327-1.14-0.499-1.708-0.202-0.668-0.646-1.105-1.3-1.337-0.219-0.078-0.442-0.156-0.646-0.266-0.689-0.371-1.138-0.922-1.223-1.729-0.009-0.087-0.025-0.174-0.035-0.238-0.479 0.060-0.934 0.135-1.392 0.169-0.807 0.059-1.558-0.172-2.288-0.495-0.77-0.342-1.547-0.668-2.32-1.002-0.616-0.266-1.178-0.612-1.635-1.114-0.471-0.518-0.804-1.101-0.877-1.813-0.013-0.124-0.049-0.246-0.070-0.349-0.566-0.223-1.121-0.421-1.659-0.656-1.199-0.526-1.725-1.749-1.288-2.997 0.124-0.354 0.305-0.688 0.48-1.078-0.108-0.080-0.228-0.178-0.357-0.261-0.841-0.537-1.385-1.298-1.658-2.251-0.294-1.027-0.166-1.955 0.649-2.727 0.378-0.358 0.718-0.757 1.088-1.124 0.582-0.579 0.82-1.313 0.884-2.095 0.072-0.889 0.523-1.514 1.207-2.007 0.633-0.457 1.322-0.813 2.113-0.867 0.423-0.029 0.853 0.035 1.279 0.065 0.267 0.018 0.534 0.046 0.8 0.078 0.309 0.037 0.521-0.072 0.61-0.383 0.010-0.034 0.032-0.065 0.042-0.099 0.465-1.645 1.779-2.223 3.256-2.519 0.711-0.143 1.376 0.17 1.954 0.602 0.302 0.225 0.579 0.484 0.875 0.718 0.425 0.338 0.439 0.34 0.875 0.020 0.592-0.433 1.223-0.728 1.978-0.741 0.684-0.012 1.272 0.207 1.776 0.645 0.297 0.258 0.567 0.551 0.826 0.849 0.476 0.547 0.545 0.574 1.248 0.344 0.17-0.056 0.34-0.113 0.511-0.167 1.118-0.347 2.084-0.031 2.947 0.697 0.517 0.436 0.87 1.002 1.181 1.595 0.234 0.446 0.476 0.889 0.685 1.346 0.274 0.597 0.756 0.878 1.373 0.848 0.959-0.046 1.576 0.453 1.995 1.216 0.446 0.811 0.726 1.688 0.552 2.639-0.048 0.262-0.157 0.512-0.274 0.88 0.013 0.006 0.105 0.032 0.175 0.087 1.6 1.23 2.16 2.907 2.019 4.857-0.051 0.709-0.467 1.245-1.067 1.603-0.427 0.254-0.889 0.448-1.352 0.678 0.45 1.257 0.491 2.509-0.284 3.691-0.765 1.168-1.951 1.644-3.275 1.936-0.267 1.374-0.679 2.696-2.046 3.364-1.256 0.614-2.583 0.856-4.028 0.316h0.001zM14.924 12.090c-0.080 0.788-0.642 0.839-1.16 0.859-0.287 0.011-0.589-0.131-0.87-0.242-0.347-0.137-0.697-0.199-1.051-0.090-0.53 0.164-1.051 0.358-1.575 0.539-0.631 0.219-1.257 0.446-1.9 0.011-0.087-0.059-0.284-0.031-0.391 0.027-1.060 0.582-1.617 1.648-1.46 2.836 0.076 0.573-0.008 1.109-0.212 1.638-0.11 0.285-0.254 0.564-0.315 0.86-0.209 1.013-0.084 1.389 0.673 1.985 0.209 0.165 0.449 0.303 0.694 0.409 0.937 0.405 1.866 0.84 2.828 1.174 0.942 0.327 1.896 0.373 2.751-0.318 0.25-0.202 0.548-0.343 0.811-0.53 0.742-0.527 1.532-0.542 2.348-0.226 0.485 0.188 0.957 0.405 1.438 0.603 0.505 0.208 0.982 0.139 1.427-0.171 0.162-0.113 0.314-0.24 0.475-0.355 0.457-0.327 0.985-0.459 1.525-0.421 0.684 0.047 1.34 0.237 1.906 0.659 0.389 0.29 0.781 0.574 1.162 0.875 0.415 0.328 0.848 0.568 1.394 0.638 1.459 0.189 2.641-0.313 3.59-1.393 0.395-0.449 0.487-1.006 0.316-1.703-0.371 0.563-0.724 1.015-1.279 1.24-0.618 0.251-1.196 0.148-1.558-0.286 0.424-0.358 0.868-0.695 1.267-1.079 0.334-0.321 0.673-0.662 0.906-1.056 0.353-0.599 0.677-1.244 0.158-2.037 0.216 0.057 0.364 0.052 0.428 0.122 0.198 0.218 0.364 0.466 0.584 0.757 0.344-0.187 0.734-0.364 1.086-0.599 0.469-0.313 0.752-0.783 0.832-1.338 0.078-0.537 0.050-1.075-0.181-1.588-0.519-1.154-1.349-1.878-2.654-1.945-0.113-0.006-0.23 0.080-0.375 0.134 0.152 0.236 0.276 0.393 0.36 0.569 0.092 0.192 0.182 0.397 0.213 0.605 0.18 1.211-0.401 2.057-1.591 2.347-0.345 0.084-0.7 0.144-0.99 0.444 0.383 0.816 0.303 1.645 0.012 2.463-0.262 0.735-0.738 1.327-1.508 1.491-0.896 0.191-1.791 0.090-2.558-0.509-0.241-0.188-0.471-0.39-0.717-0.571-0.366-0.27-0.519-0.266-0.821 0.072-0.277 0.31-0.613 0.54-1.008 0.571-0.53 0.041-1.068 0.001-1.601-0.034-0.408-0.026-0.814-0.095-1.22-0.148-0.264-0.034-0.434 0.078-0.565 0.308-0.256 0.448-0.659 0.683-1.158 0.803-0.668 0.161-1.312 0.138-1.948-0.129-0.292-0.123-0.589-0.232-0.894-0.352-0.127 0.193-0.221 0.344-0.323 0.488-0.221 0.311-0.525 0.481-0.904 0.518-0.828 0.081-2.231-0.71-2.592-1.466-0.046-0.097-0.093-0.201-0.105-0.305-0.078-0.722-0.087-1.435 0.37-2.061 0.084-0.115 0.175-0.224 0.265-0.338-0.114-0.335-0.365-0.628-0.224-1.090 0.106 0.136 0.175 0.208 0.224 0.292 0.224 0.387 0.58 0.615 0.994 0.675 0.753 0.109 1.5 0.060 2.169-0.362-0.098-0.858-0.014-1.378 0.251-1.559 0.051 0.225 0.092 0.429 0.142 0.63 0.122 0.492 0.398 0.739 0.903 0.772 0.322 0.021 0.648 0.027 0.969 0 0.77-0.066 1.418-0.382 1.867-1.031 0.173-0.25 0.305-0.529 0.461-0.791 0.101-0.169 0.189-0.355 0.324-0.493 0.399-0.41 0.845-0.359 1.151 0.112 0.078 0.12 0.169 0.238 0.22 0.37 0.117 0.302 0.344 0.456 0.642 0.512 0.725 0.134 1.451 0.231 2.183 0.033 0.855-0.232 1.686-0.506 2.313-1.186 0.631-0.683 0.864-1.483 0.681-2.393-0.101-0.5-0.221-0.578-0.717-0.589-0.463-0.011-0.659-0.199-0.667-0.652-0.002-0.144 0.011-0.288 0.026-0.431 0.101-0.937-0.26-1.684-0.931-2.309-0.855-0.797-2.078-0.469-2.415 0.436-0.12 0.32-0.344 0.421-0.635 0.359-0.273-0.058-0.447-0.233-0.478-0.514-0.017-0.157-0.028-0.333 0.024-0.477 0.096-0.264-0.009-0.448-0.156-0.641-0.427-0.562-1.007-0.858-1.69-0.951-0.68-0.093-1.193 0.283-1.336 0.957-0.037 0.176-0.030 0.361-0.070 0.535-0.022 0.094-0.081 0.21-0.159 0.256-0.335 0.198-0.802-0.008-0.898-0.395-0.038-0.154-0.007-0.325-0.039-0.481-0.042-0.206-0.066-0.443-0.185-0.601-0.395-0.528-0.964-0.793-1.601-0.683-0.626 0.109-1.142 0.472-1.283 1.155-0.071 0.346-0.069 0.712-0.064 1.068 0.008 0.605-0.214 0.781-0.798 0.592-0.085-0.027-0.167-0.065-0.248-0.103-0.465-0.223-0.957-0.286-1.466-0.268-0.692 0.024-1.137 0.373-1.314 1.054-0.049 0.19-0.058 0.391-0.098 0.584-0.098 0.471-0.307 0.616-0.794 0.563-0.249-0.027-0.503-0.032-0.746-0.086-0.52-0.116-0.982-0.008-1.313 0.401-0.342 0.422-0.39 0.913-0.153 1.421 0.13 0.276 0.285 0.55 0.356 0.843 0.265 1.088 0.224 1.599-0.716 2.243-0.374 0.257-0.697 0.622-0.966 0.994-0.501 0.693-0.257 1.134 0.4 1.487 0.432 0.232 0.917 0.367 1.388 0.549 0.401-0.713 0.62-1.411 0.668-2.153 0.079-1.217 0.762-2.019 1.739-2.632 0.178-0.112 0.367-0.208 0.535-0.303-0.154-0.858-0.135-1.414 0.058-1.668 0.027 0.020 0.067 0.034 0.080 0.062 0.046 0.097 0.086 0.197 0.124 0.298 0.28 0.743 0.851 0.996 1.58 0.735 0.657-0.234 1.329-0.428 1.991-0.65 0.462-0.155 0.917-0.128 1.372 0.021 0.179 0.058 0.359 0.116 0.635 0.205-0.029-0.348-0.038-0.611-0.076-0.87-0.11-0.758-0.057-1.483 0.422-2.243 0.105 0.736-0.057 1.424 0.235 1.862 0.468 0.208 0.807 0.32 1.105 0.5 0.477 0.288 0.979 0.433 1.531 0.423 0.216-0.004 0.431-0.007 0.646 0 0.486 0.016 0.918-0.122 1.299-0.426 0.14-0.112 0.279-0.231 0.435-0.317 0.212-0.117 0.466-0.362 0.676-0.157 0.169 0.164 0.258 0.478 0.262 0.727 0.004 0.23-0.139 0.469-0.244 0.693-0.049 0.106-0.159 0.183-0.315 0.356 0.34 0.042 0.593 0.083 0.848 0.102 0.25 0.018 0.505-0.007 0.752 0.025 0.232 0.030 0.42 0.276 0.418 0.495-0.002 0.255-0.192 0.331-0.391 0.37-0.367 0.072-0.739 0.196-1.107 0.020-0.321-0.154-0.649-0.301-0.945-0.495-0.201-0.132-0.369-0.194-0.626-0.188-1.171 0.026-2.368 0.301-3.576-0.351l0-0.001zM9.417 18.202c0.159 0.23 0.253 0.399 0.38 0.541 0.223 0.249 0.435 0.524 0.706 0.71 0.332 0.228 0.694 0.102 0.919-0.242 0.069-0.105 0.127-0.218 0.201-0.319 0.274-0.373 0.486-0.455 0.926-0.325 0.256 0.076 0.498 0.2 0.753 0.283 0.355 0.115 0.71 0.244 1.075 0.311 0.606 0.111 1.14-0.036 1.506-0.578 0.277-0.41 0.641-0.608 1.143-0.537 0.477 0.068 0.955 0.126 1.435 0.174 0.736 0.075 1.422-0.006 1.933-0.639 0.353-0.438 0.664-0.532 1.181-0.281 0.398 0.193 0.785 0.439 1.122 0.725 0.375 0.318 0.79 0.503 1.258 0.547 0.624 0.058 1.154-0.115 1.536-0.679 0.32-0.473 0.337-0.989 0.286-1.504-0.066-0.669 0.2-1.179 0.992-1.467 0.252-0.091 0.514-0.153 0.773-0.224 0.905-0.249 1.155-0.944 0.621-1.732-0.1-0.148-0.213-0.292-0.291-0.452-0.181-0.371-0.106-0.775 0.206-1.026 0.344-0.277 0.724-0.51 1.060-0.797 0.196-0.168 0.423-0.379 0.485-0.611 0.234-0.88-0.606-1.98-1.503-2.035-0.232-0.014-0.468-0.018-0.693-0.069-0.682-0.153-1.115-0.636-1.449-1.205-0.282-0.48-0.482-1.008-0.77-1.483-0.277-0.457-0.572-0.922-0.944-1.298-0.485-0.49-1.105-0.638-1.786-0.387-0.269 0.099-0.545 0.178-0.821 0.256-0.72 0.204-1.346 0.036-1.871-0.497-0.139-0.141-0.258-0.3-0.392-0.445-0.182-0.198-0.358-0.405-0.558-0.585-0.513-0.461-1.097-0.5-1.672-0.126-0.135 0.088-0.271 0.179-0.393 0.284-0.607 0.526-1.677 0.656-2.37 0.053-0.325-0.283-0.667-0.547-1.007-0.812-0.367-0.286-0.789-0.495-1.247-0.368-0.724 0.201-1.365 0.562-1.711 1.287-0.147 0.308-0.274 0.626-0.413 0.938-0.172 0.387-0.447 0.606-0.882 0.698-0.797 0.168-1.568 0.004-2.35-0.073-0.227-0.022-0.485-0.079-0.682-0.002-1.076 0.42-1.9 1.059-2.006 2.348-0.076 0.922-0.432 1.735-1.144 2.373-0.361 0.323-0.68 0.692-1.015 1.044-0.568 0.598-0.728 1.367-0.576 2.107 0.139 0.677 0.588 1.26 1.24 1.664 0.35-0.258 0.691-0.51 1.050-0.774-0.131-0.318-0.226-0.588-0.349-0.844-0.351-0.73-0.385-1.478-0.218-2.263 0.135-0.635 0.509-1.012 1.097-1.21 0.572-0.193 1.152-0.234 1.741-0.071 0.113 0.031 0.235 0.032 0.369 0.049 0.053-0.223 0.112-0.412 0.142-0.605 0.067-0.44 0.29-0.795 0.67-0.993 0.375-0.195 0.787-0.382 1.198-0.428 0.594-0.066 1.203-0.002 1.878 0.007 0.022-0.678 0.106-1.4 0.768-1.858 0.604-0.419 1.266-0.688 2.012-0.638 0.75 0.050 1.347 0.445 1.871 0.949 1.453-1.065 3.453-0.886 4.497 1.231 0.191-0.088 0.38-0.18 0.574-0.264 1.144-0.498 2.174-0.321 3.061 0.56 0.678 0.673 1.15 1.473 1.307 2.429 0.051 0.31 0.169 0.513 0.462 0.66 0.197 0.098 0.371 0.289 0.496 0.478 1.098 1.649 0.913 4.144-1.348 5.288-0.973 0.492-2.012 0.754-3.096 0.806-0.96 0.046-1.894-0.069-2.686-0.643-0.052 0.028-0.071 0.033-0.083 0.045-0.048 0.053-0.1 0.104-0.139 0.163-0.53 0.818-1.301 1.264-2.234 1.465-0.814 0.176-1.623 0.295-2.424-0.075-0.109-0.050-0.28-0.032-0.398 0.016-0.863 0.353-1.738 0.565-2.663 0.263-0.263 0.252-0.508 0.485-0.744 0.711l0.001 0zM25.429 24.28c-1.131-0.222-2.005-0.839-2.832-1.542-0.15-0.127-0.328-0.221-0.485-0.34-0.58-0.437-1.175-0.351-1.771-0.050-0.159 0.080-0.308 0.188-0.444 0.304-0.702 0.602-1.488 0.664-2.321 0.359-0.571-0.21-1.129-0.457-1.695-0.684-0.481-0.193-1.556 0.161-1.827 0.598-0.336 0.543-0.125 1.293 0.46 1.547 0.327 0.142 0.675 0.237 1.016 0.344 0.808 0.253 1.362 0.784 1.67 1.564 0.152 0.383 0.266 0.782 0.386 1.178 0.182 0.602 0.34 1.212 0.535 1.809 0.088 0.27 0.21 0.54 0.371 0.773 0.183 0.264 0.418 0.501 0.849 0.423 0.056-0.193 0.159-0.393 0.164-0.597 0.015-0.591-0.024-1.184-0.011-1.775 0.010-0.456-0.106-0.825-0.447-1.157-0.346-0.336-0.65-0.725-0.92-1.126-0.249-0.369-0.459-0.773-0.628-1.185-0.122-0.299-0.205-0.633-0.112-1.073 0.143 0.185 0.246 0.282 0.305 0.401 0.374 0.748 0.954 1.298 1.643 1.746 0.361 0.235 0.717 0.479 1.080 0.71 0.45 0.286 0.941 0.474 1.476 0.396 0.616-0.090 1.249-0.17 1.828-0.382 0.979-0.359 1.578-1.085 1.711-2.241v0z"></path>
</symbol>
</defs>
</svg>
